<svg xmlns="http://www.w3.org/2000/svg" width="31" height="31" viewBox="0 0 31 31">
  <g id="_1" data-name="1" transform="translate(0 0)">
    <g id="Group_6" data-name="Group 6" transform="translate(0 0)">
      <path id="Path_5" data-name="Path 5" d="M30.7.127a.7.7,0,0,0-.752-.034L.355,17a.7.7,0,0,0,.127,1.28l8.837,2.945,3.406,9.311a.7.7,0,0,0,.661.462.644.644,0,0,0,.081,0,.7.7,0,0,0,.464-.266l5.02-6.291,6.9,2.3a.691.691,0,0,0,.223.036.705.705,0,0,0,.695-.589L30.991.82A.7.7,0,0,0,30.7.127ZM13.811,21.752a.706.706,0,0,0-.133.334L13.042,27.3l-2.36-6.45L24.461,7.39Z" transform="translate(0 0)" fill="#f60"/>
    </g>
  </g>
</svg>
