<svg xmlns="http://www.w3.org/2000/svg" width="35" height="31" viewBox="0 0 35 31">
  <g id="_4" data-name="4" transform="translate(0 -21.329)">
    <g id="Group_7" data-name="Group 7" transform="translate(0 21.329)">
      <path id="Path_19" data-name="Path 19" d="M32.083,31.193h-.4L26.67,22.739a2.87,2.87,0,0,0-1.765-1.315,2.953,2.953,0,0,0-2.195.284L1.445,33.67a2.778,2.778,0,0,0-1.06,3.843l.361.609h0l.6,1.017,3.025,5.1v5.267a2.872,2.872,0,0,0,2.917,2.818H32.083A2.872,2.872,0,0,0,35,49.511v-15.5A2.872,2.872,0,0,0,32.083,31.193ZM4.375,41.406l-.557-.94.557-.313Zm0-7.4v1.261L1.65,36.805a1.389,1.389,0,0,1,.529-1.917L4.415,33.63A2.684,2.684,0,0,0,4.375,34.011Zm23.2-6.909L30,31.193H20.3Zm-4.129-4.176a1.45,1.45,0,0,1,1.083-.141,1.424,1.424,0,0,1,.876.654l0,0L11.627,31.193H8.748ZM17.5,43.17a.717.717,0,0,1-.729.7H9.479a.7.7,0,1,1,0-1.409h7.292A.717.717,0,0,1,17.5,43.17ZM19.688,48.1H9.479a.7.7,0,1,1,0-1.409H19.688a.7.7,0,1,1,0,1.409Zm7.93,0a3.113,3.113,0,0,1-1.367-.314,3.113,3.113,0,0,1-1.367.314,2.824,2.824,0,1,1,0-5.636,3.113,3.113,0,0,1,1.367.314,3.113,3.113,0,0,1,1.367-.314,2.824,2.824,0,1,1,0,5.636Z" transform="translate(0 -21.329)" fill="#f60"/>
    </g>
  </g>
</svg>
