<svg xmlns="http://www.w3.org/2000/svg" width="14" height="11" viewBox="0 0 14 11">
  <path id="email" d="M14-6.453v6.2a1.2,1.2,0,0,1-.367.883A1.2,1.2,0,0,1,12.75,1H1.25A1.2,1.2,0,0,1,.367.633,1.2,1.2,0,0,1,0-.25v-6.2a4.143,4.143,0,0,0,.789.68q2.828,1.922,3.883,2.7.445.328.723.512a4.464,4.464,0,0,0,.738.375A2.251,2.251,0,0,0,6.992-2h.016a2.251,2.251,0,0,0,.859-.191,4.464,4.464,0,0,0,.738-.375q.277-.184.723-.512,1.328-.961,3.891-2.7A4.309,4.309,0,0,0,14-6.453Zm0-2.3a2.065,2.065,0,0,1-.383,1.18,3.714,3.714,0,0,1-.953.961L9.008-4.07l-.332.238q-.254.184-.422.3t-.406.254A2.366,2.366,0,0,1,7.4-3.07,1.242,1.242,0,0,1,7.008-3H6.992A1.242,1.242,0,0,1,6.6-3.07a2.366,2.366,0,0,1-.449-.211q-.238-.141-.406-.254t-.422-.3L4.992-4.07Q4.281-4.57,2.945-5.5t-1.6-1.113a3.879,3.879,0,0,1-.914-.9A1.824,1.824,0,0,1,0-8.578,1.577,1.577,0,0,1,.324-9.594,1.116,1.116,0,0,1,1.25-10h11.5a1.208,1.208,0,0,1,.879.367A1.2,1.2,0,0,1,14-8.75Z" transform="translate(0 10)" fill="#fff"/>
</svg>
