<svg xmlns="http://www.w3.org/2000/svg" width="12.595" height="10.023" viewBox="0 0 12.595 10.023">
  <path id="home" d="M11-4.25V-.5a.481.481,0,0,1-.148.352A.481.481,0,0,1,10.5,0h-3V-3h-2V0h-3a.481.481,0,0,1-.352-.148A.481.481,0,0,1,2-.5V-4.25a.107.107,0,0,1,0-.023.107.107,0,0,0,0-.023L6.5-8l4.492,3.7A.109.109,0,0,1,11-4.25Zm1.742-.539-.484.578a.266.266,0,0,1-.164.086H12.07a.24.24,0,0,1-.164-.055L6.5-8.687,1.094-4.18a.29.29,0,0,1-.187.055.266.266,0,0,1-.164-.086L.258-4.789A.253.253,0,0,1,.2-4.973a.227.227,0,0,1,.086-.168L5.906-9.82a.912.912,0,0,1,.594-.2.912.912,0,0,1,.594.2L9-8.227V-9.75a.243.243,0,0,1,.07-.18A.243.243,0,0,1,9.25-10h1.5a.243.243,0,0,1,.18.07.243.243,0,0,1,.07.18v3.187l1.711,1.422a.227.227,0,0,1,.086.168A.253.253,0,0,1,12.742-4.789Z" transform="translate(-0.202 10.023)" fill="#fff"/>
</svg>
