<svg height="21px" viewBox="0 -36 512 512" width="26px" xmlns="http://www.w3.org/2000/svg"><path d="m335 70v123c0 8.269531 6.730469 15 15 15s15-6.730469 15-15v-53h30v53c0 24.8125-20.1875 45-45 45s-45-20.1875-45-45v-123h-305v256.441406l137-78.734375 123.613281 70.925781 117.976563-39.65625 133.410156 56.023438v-265zm-230 150c-24.8125 0-45-20.1875-45-45s20.1875-45 45-45 45 20.1875 45 45-20.1875 45-45 45zm0 0"/><path d="m105 160c-8.269531 0-15 6.730469-15 15s6.730469 15 15 15 15-6.730469 15-15-6.730469-15-15-15zm0 0"/><path d="m257.386719 351.367188-120.386719-69.074219-137 78.753906v78.953125h512v-72.464844l-134.589844-56.511718zm0 0"/><path d="m335 45c0-8.269531 6.730469-15 15-15h60c6.515625 0 12.058594 4.183594 14.125 10h30.589844c-2.496094-22.46875-21.59375-40-44.714844-40h-60c-24.8125 0-45 20.1875-45 45v25h30zm0 0"/></svg>