<svg clip-rule="evenodd" fill-rule="evenodd" height="512" stroke-linejoin="round" stroke-miterlimit="2" viewBox="0 0 24 24" width="512" xmlns="http://www.w3.org/2000/svg"><g id="Icon"><g><path d="m22.75 10c0-1.519-1.231-2.75-2.75-2.75h-10c-1.519 0-2.75 1.231-2.75 2.75v10c0 1.519 1.231 2.75 2.75 2.75h10c1.519 0 2.75-1.231 2.75-2.75zm-1.5 0v10c0 .69-.56 1.25-1.25 1.25h-10c-.69 0-1.25-.56-1.25-1.25v-10c0-.69.56-1.25 1.25-1.25h10c.69 0 1.25.56 1.25 1.25z"/><path d="m6.25 13.811-2.869 2.869c.199.046.406.07.619.07h2.25zm.313-5.313-5.313 5.313v.189c0 .744.295 1.419.775 1.914l4.225-4.225v-1.689c0-.534.112-1.043.313-1.502zm5.126-7.248-10.439 10.439v-2.878l7.561-7.561zm-5 0h-2.689c-1.519 0-2.75 1.231-2.75 2.75v2.689zm1.809 5.313c.459-.201.968-.313 1.502-.313h1.689l4.225-4.225c-.495-.48-1.17-.775-1.914-.775h-.189zm5.313-.313h2.939v-2.25c0-.213-.024-.42-.07-.619z"/></g></g></svg>