<svg id="Capa_1" enable-background="new 0 0 512 512" height="512" viewBox="0 0 512 512" width="512" xmlns="http://www.w3.org/2000/svg"><g><path d="m163.6 482.04h-21.072v29.96h226.388v-29.96h-21.073c-16.147 0-29.747-11.093-33.591-26.057h-117.061c-3.844 14.965-17.444 26.057-33.591 26.057z"/><path d="m47.738 390.8h416.524v35.224h-416.524z"/><path d="m464.262 150.9h-55.328l9.462 23.112-67.142 16.411-52.742 44.672-28.261-45.696-143.403 143.403-21.184-21.185 143.402-143.402-27.998-17.315h-173.33v209.94h416.524z"/><path d="m305.464 191.202 32.263-27.327 41.073-10.039-16.02-39.13 3.144-42.164-42.164 3.144-39.13-16.02-10.039 41.073-27.328 32.263 35.961 22.24z"/><path d="m306.292 0h29.96v29.099h-29.96z"/><path d="m407.527 85.65h29.098v29.96h-29.098z"/><path d="m384.786 19.617h31.496v29.96h-31.496z" transform="matrix(.723 -.691 .691 .723 87.129 286.393)"/></g></svg>