<svg xmlns="http://www.w3.org/2000/svg" width="64" height="60" viewBox="0 0 32 30">
  <defs>
    <style>
      .cls-1 {
        fill: #f60;
        fill-rule: evenodd;
      }
    </style>
  </defs>
  <path id="Icon" class="cls-1" d="M1117.9,4290.66a4.237,4.237,0,0,0,1.1-2.91,3.56,3.56,0,0,0-1.14-2.64,3.74,3.74,0,0,0-2.7-1.11h-5.54c0.05-.18.11-0.34,0.16-0.47a3.531,3.531,0,0,1,.22-0.43c0.09-.16.16-0.27,0.2-0.35,0.24-.45.42-0.81,0.55-1.1a7.315,7.315,0,0,0,.38-1.17,5.78,5.78,0,0,0,.19-1.48c0-.32,0-0.57-0.01-0.76s-0.04-.49-0.1-0.88a4.84,4.84,0,0,0-.24-0.98,4.64,4.64,0,0,0-.48-0.88,2.862,2.862,0,0,0-.8-0.79,4.5,4.5,0,0,0-1.2-.51,6.018,6.018,0,0,0-1.65-.2,1.223,1.223,0,0,0-.9.37,3.36,3.36,0,0,0-.68.97,5.174,5.174,0,0,0-.39,1.02c-0.07.29-.16,0.68-0.25,1.19-0.12.55-.21,0.94-0.27,1.18a6.545,6.545,0,0,1-.35.95,3.014,3.014,0,0,1-.62.94,30.067,30.067,0,0,0-2.02,2.34c-0.65.84-1.33,1.62-2.02,2.37a3.32,3.32,0,0,1-1.52,1.15,1.307,1.307,0,0,0-.86.4,1.157,1.157,0,0,0-.36.85v12.52a1.167,1.167,0,0,0,.38.87,1.316,1.316,0,0,0,.9.38,14.688,14.688,0,0,1,3.16.86c1.03,0.34,1.83.6,2.41,0.77a23.834,23.834,0,0,0,2.43.57,15.328,15.328,0,0,0,2.88.3h2.58a5.054,5.054,0,0,0,3.94-1.52,4.639,4.639,0,0,0,.98-3.54,3.766,3.766,0,0,0,1.08-1.83,4.053,4.053,0,0,0,0-2.29,4,4,0,0,0,.86-2.67A4.619,4.619,0,0,0,1117.9,4290.66Zm-23.86-4.16h-5.76a1.255,1.255,0,0,0-.9.37,1.2,1.2,0,0,0-.38.88v12.5a1.2,1.2,0,0,0,.38.88,1.255,1.255,0,0,0,.9.37h5.76a1.223,1.223,0,0,0,.9-0.37,1.2,1.2,0,0,0,.38-0.88v-12.5a1.2,1.2,0,0,0-.38-0.88A1.223,1.223,0,0,0,1094.04,4286.5Zm-2.3,12.14a1.318,1.318,0,0,1-1.81,0,1.243,1.243,0,0,1,0-1.77,1.292,1.292,0,0,1,1.81,0A1.221,1.221,0,0,1,1091.74,4298.64Z" transform="translate(-1087 -4274)"/>
</svg>
