<svg xmlns="http://www.w3.org/2000/svg" width="68.973" height="50.978" viewBox="0 0 68.973 50.978">
  <path id="quote" d="M872.564,556.678c-1.987-7.133-1.014-14.081,2.007-20.683,4.617-10.087,12.376-16.106,22.819-18.47a2.283,2.283,0,0,1,.358,0c.844,1.9,1.684,3.784,2.521,5.67.08.181.146.367.243.613-6.039,2.7-10.023,7.129-11.193,14.1.636.162,1.2.272,1.744.45A14.784,14.784,0,0,1,901.7,550.613c1.057,6.227-.828,11.5-5.971,15.116a15.236,15.236,0,0,1-8.738,2.766C880.913,568.5,874.825,564.8,872.564,556.678Zm39.274,2.262a25.439,25.439,0,0,1-1.094-15.667c3.158-13.823,11.516-22.319,24.763-25.67.554-.139.791-.012,1.013.507.776,1.823,1.594,3.627,2.394,5.44a2.327,2.327,0,0,1,.079.273c-6.043,2.675-10.01,7.123-11.176,14.081.626.163,1.186.3,1.74.455,10.68,3.073,14.594,17.2,6.97,25.4a15.068,15.068,0,0,1-10.993,4.73C920.068,568.489,914.558,565.508,911.839,558.94Z" transform="translate(-871.526 -517.517)" fill="#f60"/>
</svg>
