<svg xmlns="http://www.w3.org/2000/svg" width="24" height="22" viewBox="0 0 12 11">
  <defs>
    <style>
      .cls-1 {
        fill: #f60;
        fill-rule: evenodd;
      }
    </style>
  </defs>
  <path id="Star_01" data-name="Star 01" class="cls-1" d="M646.735,7351.98a0.79,0.79,0,0,0,.218-0.84,0.837,0.837,0,0,0-.695-0.56l-2.9-.41a0.357,0.357,0,0,1-.286-0.2l-1.3-2.51a0.876,0.876,0,0,0-1.542,0l-1.3,2.51a0.357,0.357,0,0,1-.286.2l-2.9.41a0.837,0.837,0,0,0-.695.56,0.79,0.79,0,0,0,.218.84l2.1,1.96a0.365,0.365,0,0,1,.109.32l-0.5,2.77a0.791,0.791,0,0,0,.187.67,0.9,0.9,0,0,0,1.06.2l2.6-1.31a0.434,0.434,0,0,1,.353,0l2.6,1.31a0.927,0.927,0,0,0,.4.09,0.865,0.865,0,0,0,.66-0.29,0.792,0.792,0,0,0,.188-0.67l-0.5-2.77a0.365,0.365,0,0,1,.109-0.32Z" transform="translate(-635 -7347)"/>
</svg>
