<svg xmlns="http://www.w3.org/2000/svg" width="60" height="60" viewBox="0 0 30 30">
  <defs>
    <style>
      .cls-1 {
        fill: #f60;
        fill-rule: evenodd;
      }
    </style>
  </defs>
  <path id="Icon" class="cls-1" d="M1388,4274a15,15,0,1,0,15,15A15.018,15.018,0,0,0,1388,4274Zm6.31,25.02-0.65-1.12a0.42,0.42,0,0,0-.36-0.2,0.5,0.5,0,0,0-.21.05,0.385,0.385,0,0,0-.19.26,0.372,0.372,0,0,0,.04.31l0.65,1.12a11.85,11.85,0,0,1-4.8,1.37v-1.57a0.79,0.79,0,0,0-1.58,0v1.57a11.655,11.655,0,0,1-4.73-1.34l0.64-1.12a0.419,0.419,0,0,0,.04-0.31,0.433,0.433,0,0,0-.2-0.26,0.455,0.455,0,0,0-.2-0.05,0.436,0.436,0,0,0-.37.21l-0.64,1.11a11.815,11.815,0,0,1-3.58-3.46l1.35-.79a0.776,0.776,0,0,0,.29-1.07,0.788,0.788,0,0,0-1.08-.29l-1.36.78a11.751,11.751,0,0,1-1.2-4.77h1.29a0.445,0.445,0,0,0,.29-0.12,0.424,0.424,0,0,0-.29-0.72l-1.3.01a11.845,11.845,0,0,1,1.21-4.84l1.36,0.78a0.831,0.831,0,0,0,.4.11,0.8,0.8,0,0,0,.68-0.4,0.788,0.788,0,0,0-.29-1.08l-1.35-.78a11.99,11.99,0,0,1,3.52-3.43l0.65,1.11a0.361,0.361,0,0,0,.15.15,0.4,0.4,0,0,0,.42,0,0.374,0.374,0,0,0,.19-0.25,0.4,0.4,0,0,0-.04-0.32l-0.65-1.11a11.86,11.86,0,0,1,4.8-1.38v1.57a0.79,0.79,0,0,0,1.58,0v-1.57a11.824,11.824,0,0,1,4.73,1.35l-0.64,1.11a0.422,0.422,0,0,0,.16.57,0.361,0.361,0,0,0,.2.06,0.436,0.436,0,0,0,.37-0.21l0.64-1.12a11.967,11.967,0,0,1,3.58,3.47l-1.35.78a0.794,0.794,0,0,0,.39,1.48,0.831,0.831,0,0,0,.4-0.11l1.36-.78a11.7,11.7,0,0,1,1.2,4.76l-1.29.01a0.4,0.4,0,0,0-.29.12,0.422,0.422,0,0,0,.09.66,0.455,0.455,0,0,0,.2.05h1.3a11.925,11.925,0,0,1-1.21,4.84l-1.36-.78a0.788,0.788,0,0,0-1.08.29,0.776,0.776,0,0,0,.29,1.07l1.35,0.79A11.99,11.99,0,0,1,1394.31,4299.02Zm-0.48-14.3-5.06,2.81a1.655,1.655,0,0,0-1.54,0l-5.06-2.81a0.992,0.992,0,1,0-.97,1.73l5.17,2.87a1.661,1.661,0,0,0,3.26,0l5.17-2.87A0.992,0.992,0,1,0,1393.83,4284.72Z" transform="translate(-1373 -4274)"/>
</svg>
